# xmcd
# 
# Track frame offsets:
#     150
#     9392
#     26575
#     38275
#     50627
#     62675
#     74107
#     86892
#     101792
#     116802
#     128495
#     140270
#     156247
# 
# Disc length: 2269
# 
# Revision: 2
# Processed by: cddbd v1.5.2PL0 Copyright (c) Steve Scherf et al.
# Submitted via: BonkEnc v1.0
# 
DISCID=b108db0d
DTITLE=Various Artist - The Golden Western Melodies II
DYEAR=0
DGENRE=Country
TTITLE0=D. Newman - Jak jsme se dostali na zapad
TTITLE1=O. Jones - Mackennovo zlato
TTITLE2=M. Bottcher - Old Shatterhand
TTITLE3=J. Williams - Zastaveni na Missouri
TTITLE4=D. Black and J. Barry - Narozen svobodny
TTITLE5=E. Morricone - Par dolaru navic
TTITLE6=M. Bottcher - Posledni vystrel
TTITLE7=D. Tiomkin - Rio Bravo
TTITLE8=American Folk Song - Cervena reka
TTITLE9=M. Philips - Na sever od Aljasky
TTITLE10=D. Tiomkin - Zelene listy leta
TTITLE11=M. Bottcher - Mezi supy
TTITLE12=M. Philips - Nebesti jezdci
EXTD=
EXTT0=
EXTT1=
EXTT2=
EXTT3=
EXTT4=
EXTT5=
EXTT6=
EXTT7=
EXTT8=
EXTT9=
EXTT10=
EXTT11=
EXTT12=
PLAYORDER=
